<svg width="500" height="500" viewBox="0 0 500 500" fill="none" xmlns="http://www.w3.org/2000/svg">
<g clip-path="url(#clip0_284_313)">
<rect width="500" height="500" rx="32" fill="black"/>
<g opacity="0.8" filter="url(#filter0_f_284_313)">
<path d="M-245 -281.115H703.444V507.43H-245V-281.115Z" fill="#7354DB"/>
<path d="M604.049 -516L1078 262.358H130.098L604.049 -516Z" fill="#69005A"/>
<path d="M1029.17 598.508C1029.17 890.386 792.729 1127 501.061 1127C209.394 1127 -27.0495 890.386 -27.0495 598.508C-27.0495 306.629 209.394 70.0153 501.061 70.0153C792.729 70.0153 1029.17 306.629 1029.17 598.508Z" fill="#240057"/>
</g>
<path d="M363.437 250.14C363.437 269.451 363.365 288.834 363.51 308.144C363.582 312.9 361.563 316.07 357.742 318.52C329.05 336.318 300.43 354.115 271.738 371.913C266.115 375.371 260.492 378.83 254.941 382.433C251.769 384.522 248.813 384.522 245.569 382.433C211.037 360.888 176.506 339.416 141.974 317.872C138.658 315.782 137 313.044 137 308.937C137.072 269.667 137.072 230.397 137 191.127C137 186.444 139.379 183.561 143.056 181.256C161.006 170.087 178.957 158.919 196.908 147.75C212.984 137.735 229.132 127.719 245.208 117.631C248.813 115.398 251.913 115.47 255.517 117.775C288.751 138.671 322.057 159.495 355.507 180.103C361.275 183.633 363.798 187.669 363.654 194.658C363.149 213.176 363.437 231.622 363.437 250.14ZM356.877 249.708C356.877 249.668 356.845 249.636 356.805 249.636C356.765 249.636 356.733 249.603 356.733 249.564C356.733 230.853 356.661 212.143 356.805 193.433C356.805 190.046 355.796 188.029 352.912 186.227C319.75 165.692 286.589 145.084 253.571 124.404C251.192 122.891 249.534 122.891 247.155 124.404C213.993 145.084 180.903 165.764 147.742 186.299C144.714 188.173 143.488 190.118 143.56 193.721C143.632 231.334 143.632 268.946 143.488 306.487C143.488 309.946 144.642 311.891 147.525 313.692C180.182 333.94 212.84 354.187 245.353 374.651C249.101 376.957 251.697 376.74 255.301 374.435C288.03 353.827 320.832 333.436 353.705 313.116C356.084 311.603 356.805 309.946 356.805 307.28C356.805 288.065 356.877 268.851 356.877 249.708Z" fill="white"/>
<path d="M253.23 309.843C251.756 312.792 247.549 312.792 246.074 309.844C230.998 279.698 216.165 250.089 201.193 220.151C199.863 217.491 201.796 214.362 204.77 214.362C234.806 214.362 264.367 214.362 294.458 214.362C297.433 214.362 299.367 217.494 298.035 220.154C283.071 250.038 268.296 279.694 253.23 309.843ZM246.068 295.065C247.544 298.016 251.757 298.014 253.229 295.062C264.716 272.037 275.98 249.554 287.32 226.925C288.653 224.265 286.718 221.132 283.743 221.132C260.814 221.132 238.323 221.132 215.547 221.132C212.575 221.132 210.641 224.258 211.968 226.916C223.311 249.649 234.579 272.093 246.068 295.065Z" fill="white"/>
<path d="M154.179 308.781C151.392 308.489 149.761 305.496 151.027 302.996C164.586 276.223 178.006 249.779 191.664 222.862C193.15 219.934 197.336 219.944 198.808 222.879C213.776 252.747 228.512 282.138 243.483 311.901C244.903 314.724 242.644 318.002 239.5 317.678C210.931 314.732 182.82 311.782 154.179 308.781ZM161.286 297.435C160.021 299.936 161.654 302.929 164.442 303.219C185.716 305.429 206.699 307.6 228.008 309.857C231.154 310.191 233.425 306.914 232.008 304.086C220.797 281.706 209.842 259.84 198.734 237.619C197.264 234.679 193.074 234.667 191.588 237.597C181.388 257.712 171.397 277.451 161.286 297.435Z" fill="white"/>
<path d="M349.576 302.904C350.864 305.407 349.23 308.423 346.429 308.712C317.324 311.714 288.759 314.668 259.78 317.668C256.627 317.995 254.365 314.699 255.803 311.875C270.964 282.1 285.94 252.694 301.208 222.76C302.691 219.852 306.845 219.849 308.334 222.753C322.111 249.628 335.795 276.124 349.576 302.904ZM267.304 304.011C265.868 306.837 268.133 310.129 271.285 309.8C293.013 307.53 314.357 305.305 335.947 303.083C338.746 302.795 340.382 299.783 339.097 297.279C328.815 277.231 318.654 257.517 308.28 237.39C306.784 234.488 302.629 234.503 301.153 237.415C289.797 259.818 278.612 281.753 267.304 304.011Z" fill="white"/>
<path d="M297.056 203.947C298.74 206.611 296.826 210.085 293.675 210.085C264.197 210.085 235.081 210.085 205.549 210.085C202.4 210.085 200.486 206.615 202.166 203.952C216.879 180.629 231.46 157.574 246.23 134.192C247.801 131.705 251.429 131.707 252.998 134.196C267.766 157.628 282.345 180.681 297.056 203.947ZM281.632 203.536C284.784 203.536 286.698 200.059 285.012 197.395C274.237 180.37 263.66 163.62 252.929 146.635C251.358 144.15 247.733 144.151 246.164 146.637C235.384 163.72 224.811 180.472 214.132 197.402C212.451 200.065 214.366 203.536 217.515 203.536C239.013 203.536 260.085 203.536 281.632 203.536Z" fill="white"/>
<path d="M346.646 195.443C349.289 194.282 352.255 196.219 352.255 199.106C352.255 233.341 352.255 267.03 352.255 300.717C352.255 300.867 352.179 301.01 352.046 301.079C351.808 301.204 351.498 301.108 351.376 300.869C337.192 272.936 322.943 245.001 308.565 216.689C307.521 214.633 308.428 212.121 310.544 211.205C322.603 205.983 334.553 200.753 346.646 195.443ZM319.732 214.531C317.613 215.45 316.708 217.966 317.757 220.023C326.929 238.004 335.926 255.694 344.922 273.381C345.023 273.58 345.253 273.667 345.453 273.568C345.626 273.481 345.749 273.307 345.749 273.113C345.749 252.027 345.749 230.938 345.749 209.301C345.749 206.418 342.791 204.481 340.149 205.635C333.3 208.626 326.564 211.568 319.732 214.531Z" fill="white"/>
<path d="M146.979 199.075C146.979 196.196 149.929 194.26 152.569 195.409C164.687 200.687 176.593 205.924 188.683 211.158C190.802 212.075 191.71 214.589 190.663 216.647C176.258 244.958 161.92 273.019 147.647 301.145C147.593 301.252 147.487 301.318 147.369 301.296C147.197 301.263 147.051 301.104 147.05 300.929C146.983 267.137 146.979 233.408 146.979 199.075ZM153.361 273.429C153.361 273.585 153.483 273.73 153.63 273.782C153.817 273.848 154.014 273.765 154.104 273.588C163.203 255.795 172.24 238.001 181.449 219.973C182.498 217.919 181.599 215.406 179.484 214.486C172.584 211.484 165.836 208.558 158.959 205.568C156.316 204.419 153.361 206.355 153.361 209.237C153.361 231.003 153.361 252.217 153.361 273.429Z" fill="white"/>
<path d="M155.635 313.165C155.699 312.927 155.93 312.742 156.175 312.767C185.629 315.793 215.082 318.819 244.6 321.845C246.64 322.054 248.192 323.773 248.192 325.824C248.192 338.54 248.192 351.05 248.192 363.973C248.192 367.111 244.744 369.027 242.08 367.37C213.069 349.332 184.466 331.526 155.864 313.721C155.669 313.6 155.576 313.386 155.635 313.165ZM235.459 355.434C238.124 357.091 241.573 355.174 241.573 352.036C241.573 345.184 241.573 338.536 241.573 331.787C241.573 329.738 240.024 328.019 237.986 327.809C219.936 325.944 202.061 324.137 184.188 322.331C183.927 322.305 183.678 322.471 183.575 322.713C183.485 322.924 183.577 323.158 183.771 323.28C200.875 333.969 218.036 344.602 235.459 355.434Z" fill="white"/>
<path d="M257.136 367.426C254.471 369.064 251.042 367.145 251.042 364.017C251.042 351.144 251.042 338.678 251.042 325.966C251.042 323.916 252.592 322.197 254.632 321.987C284.671 318.894 314.519 315.862 344.433 312.765C344.668 312.741 344.888 312.856 344.988 313.07C345.081 313.271 344.998 313.521 344.809 313.637C315.808 331.406 286.742 349.239 257.136 367.426ZM257.758 352.096C257.757 355.222 261.181 357.14 263.846 355.507C281.692 344.573 299.172 333.845 316.65 323.118C316.827 323.009 316.901 322.794 316.807 322.609C316.713 322.423 316.514 322.3 316.307 322.321C298.044 324.201 279.781 326.08 261.398 327.959C259.368 328.167 257.819 329.869 257.807 331.91C257.77 338.564 257.76 345.204 257.758 352.096Z" fill="white"/>
<path d="M242.318 132.07C242.423 132.227 242.425 132.431 242.325 132.591C226.817 157.249 211.309 181.978 195.73 206.707C194.869 208.074 194.224 209.224 192.144 208.361C178.303 202.175 164.461 196.133 150.548 190.018C150.051 189.852 150.255 189.034 150.699 188.756C181.113 169.743 211.389 150.801 241.664 131.928C241.884 131.79 242.174 131.853 242.318 132.07ZM221.305 153.506C221.441 153.289 221.39 152.991 221.208 152.811C221.075 152.681 220.873 152.677 220.715 152.775C203.883 163.288 187.104 173.802 169.93 184.567C167.21 186.272 167.507 190.325 170.451 191.608C176.601 194.288 182.52 196.845 188.482 199.434C190.299 200.223 192.42 199.566 193.471 197.888C202.811 182.976 212.089 168.24 221.305 153.506Z" fill="white"/>
<path d="M344.344 185.523C347.086 187.222 346.789 191.292 343.826 192.566C341.072 193.75 338.418 194.894 335.741 196.081C326.601 200.035 317.389 204.06 308.248 208.013C306.725 208.66 305.564 209.307 304.331 207.366C288.544 182.395 272.685 157.425 256.825 132.454C256.773 132.372 256.727 132.365 256.755 132.271C256.843 131.981 257.256 131.817 257.513 131.975C286.339 149.685 315.168 167.459 344.344 185.523ZM329.457 191.583C332.434 190.3 332.732 186.194 329.972 184.494C312.53 173.757 295.587 163.269 278.59 152.782C278.413 152.673 278.186 152.699 278.038 152.845C277.888 152.994 277.862 153.227 277.975 153.405C287.386 168.231 296.798 183.057 306.269 197.943C307.325 199.603 309.432 200.248 311.238 199.464C317.294 196.836 323.276 194.247 329.457 191.583Z" fill="white"/>
</g>
<defs>
<filter id="filter0_f_284_313" x="-445" y="-716" width="1723" height="2043" filterUnits="userSpaceOnUse" color-interpolation-filters="sRGB">
<feFlood flood-opacity="0" result="BackgroundImageFix"/>
<feBlend mode="normal" in="SourceGraphic" in2="BackgroundImageFix" result="shape"/>
<feGaussianBlur stdDeviation="100" result="effect1_foregroundBlur_284_313"/>
</filter>
<clipPath id="clip0_284_313">
<rect width="500" height="500" rx="32" fill="white"/>
</clipPath>
</defs>
</svg>
